<?xml version="1.0" encoding="UTF-8" standalone="no"?>
<!-- Created with Inkscape (http://www.inkscape.org/) -->

<svg
   width="67.733337mm"
   height="77.385239mm"
   viewBox="0 0 67.733338 77.385239"
   version="1.1"
   id="svg1"
   xml:space="preserve"
   inkscape:version="1.3.2 (091e20e, 2023-11-25, custom)"
   sodipodi:docname="folder-nginx.svg"
   xmlns:inkscape="http://www.inkscape.org/namespaces/inkscape"
   xmlns:sodipodi="http://sodipodi.sourceforge.net/DTD/sodipodi-0.dtd"
   xmlns="http://www.w3.org/2000/svg"
   xmlns:svg="http://www.w3.org/2000/svg"><sodipodi:namedview
     id="namedview1"
     pagecolor="#ffffff"
     bordercolor="#000000"
     borderopacity="0.25"
     inkscape:showpageshadow="2"
     inkscape:pageopacity="0.0"
     inkscape:pagecheckerboard="0"
     inkscape:deskcolor="#d1d1d1"
     inkscape:document-units="mm"
     inkscape:zoom="0.62255995"
     inkscape:cx="-1835.1646"
     inkscape:cy="105.21075"
     inkscape:window-width="5120"
     inkscape:window-height="1369"
     inkscape:window-x="-8"
     inkscape:window-y="1072"
     inkscape:window-maximized="1"
     inkscape:current-layer="layer1" /><defs
     id="defs1" /><g
     inkscape:label="Layer 1"
     inkscape:groupmode="layer"
     id="layer1"
     transform="translate(-833.7584,-141.02711)"><g
       id="g207"
       transform="matrix(0.14277747,0,0,0.14277747,831.78496,158.1498)"><path
         style="fill:#fefefe"
         d="m 13.852685,351.23105 0.03093,-70.84218 0.238584,1.45521 0.238585,1.4552 0.892662,1.88579 0.892661,1.88579 1.682094,1.75356 1.682094,1.75355 26.722917,15.37618 26.722917,15.37617 7.14375,4.10396 7.14375,4.10395 4.233333,2.4532 4.233333,2.45319 32.543755,18.70519 32.54375,18.7052 10.71562,6.15355 10.71563,6.15356 17.06562,9.79803 17.06563,9.79803 14.41979,8.27344 14.41979,8.27344 1.45382,0.6448 1.45381,0.64481 1.88223,0.14235 1.88222,0.14235 1.42646,-0.33037 1.42646,-0.33037 1.32292,-0.72122 1.32291,-0.72122 14.81667,-8.54054 14.81667,-8.54054 6.08541,-3.50486 6.08542,-3.50485 62.44167,-35.91426 62.44166,-35.91426 3.96875,-2.30212 3.96875,-2.30212 24.84655,-14.27251 24.84654,-14.27251 1.65763,-1.5327 1.65764,-1.5327 0.83633,-1.30331 0.83633,-1.30331 0.57304,-1.39733 0.57303,-1.39732 0.13312,-103.84895 0.13312,-103.848956 0.0653,173.765096 0.0653,173.76509 H 251.02071 13.821754 Z m 125.116985,-65.58381 -0.92604,-0.11745 -2.1894,-0.39741 -2.18939,-0.39742 -2.30852,-0.81052 -2.30852,-0.81052 -2.24896,-1.16293 -2.24896,-1.16294 -1.77286,-1.33535 -1.77287,-1.33535 -1.61785,-1.63298 -1.61785,-1.63298 -1.18692,-1.66332 -1.18692,-1.66331 -1.05118,-2.05024 -1.05118,-2.05024 -0.76412,-2.38125 -0.76412,-2.38125 -0.29919,-2.11666 -0.29919,-2.11667 0.0775,-108.34687 0.0775,-108.346867 0.71822,-2.602762 0.71822,-2.602762 1.30091,-2.723343 1.30091,-2.723343 1.12241,-1.652813 1.1224,-1.652814 1.87182,-1.970539 1.87182,-1.97054 2.1304,-1.612064 2.13039,-1.612065 2.68576,-1.272141 2.68576,-1.272141 2.20903,-0.637603 2.20904,-0.637602 3.30729,-0.469751 3.30729,-0.469751 4.63021,-0.0082 4.63021,-0.0082 2.11666,0.327926 2.11667,0.327926 1.98438,0.408278 1.98437,0.408277 3.04271,0.927613 3.04271,0.927612 2.64583,1.129287 2.64583,1.129288 2.7398,1.58236 2.7398,1.582361 2.62957,1.936632 2.62957,1.936632 2.75514,2.668331 2.75514,2.668331 12.07394,14.419791 12.07394,14.419791 5.11193,6.085416 5.11192,6.085417 5.11671,6.113904 5.11671,6.113905 14.02292,16.745873 14.02291,16.74587 19.02099,22.64856 19.02098,22.64855 4.91612,5.82083 4.91612,5.82084 8.5618,10.12031 8.56179,10.12031 0.0448,-1e-4 0.0448,-9e-5 0.0198,-77.45667 0.0198,-77.456674 0.47474,-2.38125 0.47475,-2.38125 0.93001,-2.513541 0.93001,-2.513542 0.80648,-1.455208 0.80648,-1.455208 1.81199,-2.433493 1.81199,-2.433492 1.64553,-1.482711 1.64553,-1.482711 2.13824,-1.436352 2.13825,-1.436352 1.99439,-0.908872 1.99439,-0.908872 2.08507,-0.655862 2.08507,-0.655863 1.98438,-0.306893 1.98437,-0.306894 2.77813,-0.0015 2.77812,-0.0015 1.75903,0.281122 1.75902,0.281122 2.30983,0.669362 2.30983,0.669362 2.17689,1.038988 2.17689,1.038988 2.03892,1.363712 2.03892,1.363712 2.1719,2.152681 2.1719,2.152681 1.51577,2.278338 1.51576,2.278339 1.07661,2.297415 1.0766,2.297415 0.7094,2.567996 0.7094,2.567996 V 150.47846 260.01595 l -0.72368,2.58855 -0.72369,2.58855 -0.91142,1.97264 -0.91142,1.97265 -1.43336,2.19897 -1.43337,2.19898 -1.66815,1.78326 -1.66815,1.78325 -2.07291,1.56199 -2.0729,1.56198 -1.70121,0.95137 -1.70121,0.95137 -2.20489,0.80721 -2.20489,0.80721 -3.02753,0.63014 -3.02753,0.63014 -3.32247,0.30371 -3.32247,0.30372 -3.57187,-0.18087 -3.57188,-0.18086 -2.94571,-0.50253 -2.94572,-0.50252 -2.98182,-0.82764 -2.98182,-0.82763 -2.11225,-0.80659 -2.11224,-0.80659 -2.74535,-1.40761 -2.74536,-1.4076 -1.91486,-1.23509 -1.91487,-1.23508 -2.24896,-1.74352 -2.24896,-1.74352 -1.42486,-1.33152 -1.42486,-1.33152 -2.6943,-3.175 -2.69431,-3.175 -18.7747,-22.35729 -18.77469,-22.35729 -13.09362,-15.61042 -13.09363,-15.61041 -3.65668,-4.36563 -3.65668,-4.36562 -7.18708,-8.57335 -7.18709,-8.57335 -11.19768,-13.38706 -11.19768,-13.38707 -12.8794,-15.41717 -12.8794,-15.41717 -0.19762,6.9505 -0.19762,6.95051 0.0653,70.51145 0.0653,70.51145 -0.44856,2.11667 -0.44857,2.11667 -0.67511,2.05623 -0.6751,2.05623 -0.8914,1.80366 -0.89139,1.80366 -0.92682,1.43178 -0.92682,1.43177 -1.56684,1.85208 -1.56683,1.85209 -2.23815,1.80288 -2.23816,1.80289 -2.91041,1.42323 -2.91042,1.42324 -1.6836,0.53968 -1.6836,0.53968 -2.15286,0.4099 -2.15286,0.4099 -2.77812,0.0997 -2.77813,0.0997 z m 348.76861,-264.127919 -0.32268,-1.562267 -0.94428,-1.887513 -0.94429,-1.887514 -1.43111,-1.545776 -1.43112,-1.545776 -1.65433,-1.062234 -1.65434,-1.062233 -43.12708,-24.791378 -43.12709,-24.791377 -3.57187,-2.06098 -3.57188,-2.060979 -5.29166,-3.046267 -5.29167,-3.046268 -26.19375,-15.067497 -26.19375,-15.067498 -7.27604,-4.177479 -7.27604,-4.177479 -7.67292,-4.418425 -7.67292,-4.418426 -10.05416,-5.771765 -10.05417,-5.77176 -5.42396,-3.17842 -5.42396,-3.17842 -5.55625,-2.86218 -5.55625,-2.86218 118.59948,-0.005 118.59948,-0.005 v 71.437493 71.437496 h -0.0794 -0.0794 z m -473.894482,-70.338249 -0.02204,-70.974472 118.202602,0.006 118.2026,0.006 -4.23333,2.19754 -4.23333,2.19754 -14.81667,8.54889 -14.81667,8.548892 -5.29166,3.052645 -5.29167,3.052646 -9.26042,5.327241 -9.26041,5.327241 -9.12813,5.256484 -9.12812,5.256484 -8.73125,5.020582 -8.73125,5.020581 -6.74688,3.877723 -6.74687,3.877722 -7.27605,4.190407 -7.27604,4.190406 -7.9375,4.562431 -7.9375,4.562431 L 79.835296,-22.161387 56.28738,-8.6098604 37.80463,2.0103437 19.32188,12.630548 l -1.409137,1.417158 -1.409137,1.417159 -0.943872,1.796191 -0.943871,1.796192 -0.375011,1.54915 -0.375011,1.549149 z"
         id="path208" /><path
         style="fill:#009538"
         d="m 248.37488,421.56146 -0.79375,-0.19303 -1.19062,-0.53151 -1.19063,-0.53152 -14.41979,-8.27361 -14.41979,-8.27361 -17.06563,-9.79803 -17.06562,-9.79803 -10.71563,-6.15356 -10.71562,-6.15355 -32.54375,-18.7052 -32.543754,-18.70519 -4.233333,-2.45319 -4.233333,-2.4532 -7.14375,-4.10395 -7.14375,-4.10396 -26.722917,-15.37617 -26.722917,-15.37618 -1.682094,-1.75355 -1.682094,-1.75356 -0.887722,-1.88579 -0.887721,-1.88579 -0.272457,-1.71979 -0.272456,-1.71979 0.0019,-128.71978 0.0019,-128.719789 0.398959,-1.69251 0.39896,-1.69251 0.938056,-1.785123 0.938055,-1.785123 1.409137,-1.417159 1.409137,-1.417158 18.48275,-10.6202043 18.48275,-10.6202041 23.547916,-13.5515266 23.547918,-13.551527 7.9375,-4.562431 7.9375,-4.562431 7.27604,-4.190406 7.27605,-4.190407 6.74687,-3.877722 6.74688,-3.877723 8.73125,-5.020581 8.73125,-5.020582 9.12812,-5.256484 9.12813,-5.256484 9.39271,-5.404896 9.3927,-5.404896 4.49792,-2.591742 4.49792,-2.591742 15.875,-9.158549 15.875,-9.15854 4.03458,-2.04358 4.03459,-2.04359 4.82896,2.43134 4.82895,2.43133 3.83646,2.20939 3.83646,2.2094 7.80521,4.51416 7.8052,4.51416 9.12813,5.2324 9.12812,5.232398 4.23334,2.451485 4.23333,2.451485 32.54375,18.708024 32.54375,18.708024 5.29167,3.046699 5.29166,3.046699 3.57188,2.060979 3.57187,2.06098 43.12709,24.791377 43.12708,24.791378 1.65434,1.062233 1.65433,1.062234 1.38837,1.500071 1.38838,1.500071 0.86639,1.626482 0.86639,1.626482 0.48727,1.93515 0.48727,1.93515 -0.11655,129.116659 -0.11655,129.11666 -0.52584,1.63789 -0.52583,1.63789 -0.99659,1.53711 -0.99659,1.53711 -1.59423,1.45521 -1.59423,1.45521 -24.84337,14.27251 -24.84338,14.27251 -3.96875,2.30212 -3.96875,2.30212 -62.44166,35.91426 -62.44167,35.91426 -6.08542,3.50485 -6.08541,3.50486 -14.81667,8.53754 -14.81667,8.53754 -1.12897,0.64749 -1.12898,0.64749 -1.38457,0.3686 -1.38456,0.3686 -1.5875,-0.0239 -1.5875,-0.024 z m -100.77006,-136.40609 2.15286,-0.4099 1.6836,-0.53968 1.6836,-0.53968 2.91042,-1.42324 2.91041,-1.42323 2.23816,-1.80289 2.23815,-1.80288 1.56683,-1.85209 1.56684,-1.85208 0.92682,-1.43177 0.92682,-1.43178 0.89139,-1.80366 0.8914,-1.80366 0.6751,-2.05623 0.67511,-2.05623 0.44857,-2.11667 0.44856,-2.11667 -0.0653,-70.51145 -0.0653,-70.51145 0.19762,-6.95051 0.19762,-6.9505 12.8794,15.41717 12.8794,15.41717 11.19768,13.38707 11.19768,13.38706 7.18709,8.57335 7.18708,8.57335 3.65668,4.36562 3.65668,4.36563 13.09363,15.61041 13.09362,15.61042 18.77469,22.35729 18.7747,22.35729 2.69431,3.175 2.6943,3.175 1.42486,1.33152 1.42486,1.33152 2.24896,1.74352 2.24896,1.74352 1.91487,1.23508 1.91486,1.23509 2.74536,1.4076 2.74535,1.40761 2.11224,0.80659 2.11225,0.80659 2.98182,0.82763 2.98182,0.82764 2.94572,0.50252 2.94571,0.50253 3.57188,0.18086 3.57187,0.18087 3.32247,-0.30372 3.32247,-0.30371 3.02753,-0.63014 3.02753,-0.63014 2.20489,-0.80721 2.20489,-0.80721 1.70121,-0.95137 1.70121,-0.95137 2.0729,-1.56198 2.07291,-1.56199 1.66815,-1.78325 1.66815,-1.78326 1.43337,-2.19898 1.43336,-2.19897 0.91142,-1.97265 0.91142,-1.97264 0.72369,-2.58855 0.72368,-2.58855 V 150.47846 40.940963 l -0.7094,-2.567996 -0.7094,-2.567996 -1.0766,-2.297415 -1.07661,-2.297415 -1.51576,-2.278339 -1.51577,-2.278338 -2.1719,-2.152681 -2.1719,-2.152681 -2.03892,-1.363712 -2.03892,-1.363712 -2.17689,-1.038988 -2.17689,-1.038988 -2.30983,-0.669362 -2.30983,-0.669362 -1.75902,-0.281122 -1.75903,-0.281122 -2.77812,0.0015 -2.77813,0.0015 -1.98437,0.306894 -1.98438,0.306893 -2.08507,0.655863 -2.08507,0.655862 -1.99439,0.908872 -1.99439,0.908872 -2.13825,1.436352 -2.13824,1.436352 -1.64553,1.482711 -1.64553,1.482711 -1.81199,2.433492 -1.81199,2.433493 -0.80648,1.455208 -0.80648,1.455208 -0.93001,2.513542 -0.93001,2.513541 -0.47475,2.38125 -0.47474,2.38125 -0.0198,77.45667 -0.0198,77.45667 -0.0448,9e-5 -0.0448,1e-4 -8.56179,-10.12031 -8.5618,-10.12031 -4.91612,-5.82084 -4.91612,-5.82083 -19.02098,-22.64855 -19.02099,-22.64856 -14.02291,-16.74587 -14.02292,-16.745869 -5.11671,-6.113905 -5.11671,-6.113904 -5.11192,-6.085417 -5.11193,-6.085416 -12.07394,-14.419791 -12.07394,-14.419791 -2.75514,-2.668331 -2.75514,-2.668331 -2.62957,-1.936632 -2.62957,-1.936632 -2.7398,-1.582361 -2.7398,-1.58236 -2.64583,-1.129288 -2.64583,-1.129287 -3.04271,-0.927612 -3.04271,-0.927613 -1.98437,-0.408277 -1.98438,-0.408278 -2.11667,-0.327926 -2.11666,-0.327926 -4.63021,0.0082 -4.63021,0.0082 -3.30729,0.469751 -3.30729,0.469751 -2.20904,0.637602 -2.20903,0.637603 -2.68576,1.272141 -2.68576,1.272141 -2.13039,1.612065 -2.1304,1.612064 -1.87182,1.97054 -1.87182,1.970539 -1.1224,1.652814 -1.12241,1.652813 -1.30091,2.723343 -1.30091,2.723343 -0.71822,2.602762 -0.71822,2.602762 -0.0775,108.346863 -0.0775,108.34687 0.29919,2.11667 0.29919,2.11666 0.76412,2.38125 0.76412,2.38125 1.05118,2.05024 1.05118,2.05024 1.18692,1.66331 1.18692,1.66332 1.61785,1.63298 1.61785,1.63298 1.77287,1.33535 1.77286,1.33535 2.24896,1.16294 2.24896,1.16293 2.30852,0.81052 2.30852,0.81052 2.18939,0.39742 2.1894,0.39741 0.92604,0.11745 0.92604,0.11744 2.77813,-0.0997 2.77812,-0.0997 z"
         id="path207" /></g></g></svg>
